<svg xmlns="http://www.w3.org/2000/svg" fill="#000000" width="24" height="24" style=""><rect id="backgroundrect" width="100%" height="100%" x="0" y="0" fill="none" stroke="none" class="" style=""/><g class="currentLayer" style=""><title>Layer 1</title><path d="M10.25591,1.3516505763053894 C5.58228,1.3516505763053894 1.8022,5.31507057630539 1.8022,10.21537057630539 C1.8022,15.115670576305389 5.58228,19.07909057630539 10.25591,19.07909057630539 C11.9245,19.07909057630539 13.46878,18.56585057630539 14.77802,17.69414057630539 L20.8852,24.097530576305388 L22.99863,21.881600576305388 L16.96914,15.575970576305389 C18.05305,14.08510057630539 18.70961,12.23782057630539 18.70961,10.21537057630539 C18.70961,5.31507057630539 14.92953,1.3516505763053894 10.25591,1.3516505763053894 zM10.25591,3.4372305763053896 C13.83591,3.4372305763053896 16.72051,6.461730576305389 16.72051,10.21537057630539 C16.72051,13.96901057630539 13.83591,17.54296057630539 10.25591,16.99351057630539 C6.6759,16.44406057630539 3.79131,13.96901057630539 3.79131,10.21537057630539 C3.79131,6.461730576305389 6.6759,3.4372305763053896 10.25591,3.4372305763053896 z" id="svg_1" class=""/></g></svg>